<svg xmlns="http://www.w3.org/2000/svg" viewBox="0 0 64 64">
  <!-- Techno Daemon: 悪魔っ娘アイコン -->
  <rect width="64" height="64" rx="12" fill="#111314"/>
  <rect x="1.5" y="1.5" width="61" height="61" rx="10.5" fill="none" stroke="#31383c" stroke-width="1.5"/>
  <!-- ツノ -->
  <path d="M14 24 C12 14, 16 8, 22 6 C20 12, 21 17, 23 21 Z" fill="#91f0b2"/>
  <path d="M50 24 C52 14, 48 8, 42 6 C44 12, 43 17, 41 21 Z" fill="#91f0b2"/>
  <!-- 髪(外側シルエット) -->
  <path d="M32 8 C18 8, 12 19, 12 30 C12 40, 14 48, 12 56 C17 52, 19 47, 20 42 L44 42 C45 47, 47 52, 52 56 C50 48, 52 40, 52 30 C52 19, 46 8, 32 8 Z" fill="#232a2d"/>
  <!-- 顔 -->
  <path d="M32 18 C41 18, 46 24, 46 32 C46 41, 40 47, 32 47 C24 47, 18 41, 18 32 C18 24, 23 18, 32 18 Z" fill="#e9e2d4"/>
  <!-- 前髪 -->
  <path d="M32 14 C22 14, 17 21, 17 29 C20 26, 22 22, 24 22 C25 25, 27 26, 28 24 C30 26, 33 26, 35 24 C36 26, 38 25, 39 22 C42 22, 44 26, 47 29 C47 21, 42 14, 32 14 Z" fill="#2c3437"/>
  <!-- 目(スリット瞳) -->
  <path d="M23 32 C24 30, 27 30, 28 32 C27 34, 24 34, 23 32 Z" fill="#0f1412"/>
  <path d="M36 32 C37 30, 40 30, 41 32 C40 34, 37 34, 36 32 Z" fill="#0f1412"/>
  <rect x="25" y="30.4" width="1.4" height="3.2" rx="0.7" fill="#91f0b2"/>
  <rect x="38" y="30.4" width="1.4" height="3.2" rx="0.7" fill="#91f0b2"/>
  <!-- ほほ -->
  <circle cx="22" cy="37" r="1.8" fill="#d9b56c" opacity="0.55"/>
  <circle cx="42" cy="37" r="1.8" fill="#d9b56c" opacity="0.55"/>
  <!-- 口と牙 -->
  <path d="M28 40 C30 42.5, 34 42.5, 36 40" fill="none" stroke="#0f1412" stroke-width="1.6" stroke-linecap="round"/>
  <path d="M29.5 40.8 L30.8 43.6 L32 40.9 Z" fill="#ffffff"/>
  <!-- しっぽ -->
  <path d="M46 50 C54 52, 58 47, 56 41 C55 45, 52 47, 48 46 Z" fill="#91f0b2"/>
</svg>
